<?xml version="1.0" encoding="UTF-8"?>
<svg version="1.1" xmlns="http://www.w3.org/2000/svg" width="937" height="288">
<path d="M0 0 C0.66 0 1.32 0 2 0 C6.95 10.23 11.9 20.46 17 31 C22.94 31.33 28.88 31.66 35 32 C32.99035602 37.02410994 30.61043471 40.2476687 27.265625 44.40234375 C25.66866219 46.96280561 25.66866219 46.96280561 26.7277832 49.76611328 C28.02501739 53.06359248 29.48552628 56.18051074 31.08984375 59.33984375 C31.5458773 60.24410851 31.5458773 60.24410851 32.01112366 61.16664124 C32.98274754 63.09222929 33.9596368 65.01507395 34.9375 66.9375 C39.46713564 75.86058615 43.88876972 84.82445575 48.18359375 93.86328125 C54.31396114 106.75129229 60.7114578 119.50115225 67.125 132.25 C69.35927015 136.69145823 71.59105295 141.13414976 73.8203125 145.578125 C74.35384338 146.63906372 74.88737427 147.70000244 75.43707275 148.79309082 C77.91588925 153.74304202 80.34955596 158.70465263 82.66699219 163.73242188 C83.07392303 164.61339539 83.48085388 165.4943689 83.90011597 166.40203857 C84.64483645 168.02738075 85.38020683 169.65705546 86.10403442 171.29180908 C87.86501207 175.14450113 89.16935373 177.82599357 93 180 C93.37125 179.195625 93.37125 179.195625 93.75 178.375 C95 176 95 176 97.0428009 173.62730408 C100.2437404 168.814532 99.58125199 163.16082474 99.56518555 157.58813477 C99.5770137 156.34029205 99.58884186 155.09244934 99.60102844 153.80679321 C99.6282403 150.39531998 99.63735482 146.98482044 99.63609672 143.57330441 C99.6369291 140.72046668 99.64918535 137.86771984 99.66104633 135.01491016 C99.68838988 128.2822613 99.6937574 121.54983132 99.6862793 114.81713867 C99.67903689 107.88214201 99.71246619 100.94816157 99.76533669 94.01338536 C99.80916139 88.04881667 99.82582967 82.08457585 99.8213008 76.11984867 C99.81898253 72.56190428 99.82721878 69.00478161 99.86237144 65.44699287 C99.90036242 61.47801284 99.88180949 57.51037379 99.8581543 53.54125977 C99.88647842 51.78378166 99.88647842 51.78378166 99.91537476 49.99079895 C99.83478215 44.30668881 99.61572636 40.93070113 95.44636536 36.84117126 C94.80442136 36.32785216 94.16247736 35.81453306 93.50108051 35.28565884 C93.00572394 34.86139142 92.51036737 34.437124 92 34 C92 33.34 92 32.68 92 32 C128.68953902 29.05235273 128.68953902 29.05235273 136.390625 35.3984375 C139.50071089 38.87063481 141.79375678 42.73427709 143.88964844 46.88525391 C145.39925102 49.76040289 147.36396027 52.06582044 149.5 54.5 C150.1909375 55.345625 150.881875 56.19125 151.59375 57.0625 C154.72176153 60.88111148 157.86084917 64.69054423 161 68.5 C165.53566433 74.0041677 170.06200748 79.51564004 174.57421875 85.0390625 C178.41490352 89.72704809 182.27163751 94.40182577 186.12890625 99.07617188 C186.70125 99.77033203 187.27359375 100.46449219 187.86328125 101.1796875 C188.62572144 102.10370361 188.62572144 102.10370361 189.40356445 103.04638672 C191.28642077 105.35050298 193.14242809 107.67547324 195 110 C195.16251903 101.12462893 195.2867329 92.24977349 195.3626852 83.37323666 C195.39914774 79.25097364 195.44856523 75.1297319 195.52807617 71.00805664 C195.60439295 67.02683616 195.64604276 63.04659491 195.6641407 59.06469917 C195.67702954 57.54918571 195.70220032 56.03372314 195.7401104 54.51862907 C196.1881377 46.15913796 196.1881377 46.15913796 193.39505005 38.53884888 C191.52830677 36.6260892 191.52830677 36.6260892 189.50721741 35.17189026 C189.00983566 34.78516647 188.51245392 34.39844269 188 34 C188 33.34 188 32.68 188 32 C204.83 32 221.66 32 239 32 C237 36 237 36 234.90437317 37.9783783 C231.85267414 42.8204335 232.469281 47.74069871 232.5300293 53.34594727 C232.5267437 55.22472061 232.5267437 55.22472061 232.52339172 57.14144897 C232.52147802 60.56936832 232.53735946 63.99632042 232.56149268 67.42409635 C232.58281598 71.01366556 232.58219504 74.60323335 232.58418274 78.19285583 C232.59062644 84.21940419 232.61185912 90.2457493 232.64331055 96.2722168 C232.6836167 104.00549157 232.70100195 111.738634 232.71061993 119.47200108 C232.71892507 126.1244455 232.73615894 132.77686196 232.75565743 139.42928195 C232.75970464 140.85626352 232.76344447 142.28324599 232.7668798 143.71022916 C232.77817932 148.4013538 232.7983523 153.09236935 232.82299805 157.78344727 C232.82568695 158.96745621 232.82837585 160.15146515 232.83114624 161.37135315 C232.8418792 162.99690125 232.8418792 162.99690125 232.85282898 164.6552887 C232.8592392 166.06695234 232.8592392 166.06695234 232.86577892 167.50713444 C232.99042502 169.82216553 233.39005282 171.77404626 234 174 C234.06548492 175.58211573 234.08578381 177.16670081 234.0625 178.75 C234.05347656 179.54921875 234.04445313 180.3484375 234.03515625 181.171875 C234.01775391 182.07679688 234.01775391 182.07679688 234 183 C217.41664817 184.51831299 217.41664817 184.51831299 212.015625 181.125 C209.73607099 178.53827205 207.8645517 175.8982051 206 173 C204.68280911 171.34121933 203.34954998 169.6950624 202 168.0625 C201.34902344 167.2375 200.69804688 166.4125 200.02734375 165.5625 C196.41193835 160.99273903 192.69635163 156.50433211 189 152 C183.25076487 144.98614568 177.52333802 137.95492408 171.80664062 130.91455078 C167.2181923 125.2650574 162.61294873 119.62950595 158 114 C155.75738606 111.25946303 153.51519538 108.51858102 151.2734375 105.77734375 C149.69699624 103.8514851 148.11874508 101.9271071 146.5390625 100.00390625 C145.34410156 98.54791016 145.34410156 98.54791016 144.125 97.0625 C143.04605469 95.74958984 143.04605469 95.74958984 141.9453125 94.41015625 C140.24671813 92.30567286 138.61587517 90.16795154 137 88 C136.79073185 98.50110629 136.63118502 109.00171023 136.53369045 119.50448322 C136.48687756 124.38240436 136.42346916 129.25889081 136.32104492 134.13598633 C136.22267544 138.84994107 136.169323 143.56252326 136.14610481 148.27742577 C136.12957708 150.06880472 136.09730098 151.86011524 136.04842949 153.6509037 C135.70623915 166.03333788 135.70623915 166.03333788 141.55493164 176.56323242 C143.03631074 178.04246581 144.51790892 179.52147997 146 181 C146 181.66 146 182.32 146 183 C102.77 183 59.54 183 15 183 C17.61264943 181.25823372 20.03380931 180.0453757 22.875 178.75 C27.60143426 176.37296289 30.33617209 174.61730171 33 170 C34.61082661 163.26137536 31.90674975 157.64951196 29.09375 151.6015625 C28 149 28 149 28 146 C19.46367056 146.10756856 10.92742968 146.22021553 2.39125443 146.33933926 C-1.5724692 146.39449421 -5.5362003 146.44790223 -9.5 146.49731445 C-13.32555722 146.5450677 -17.15102657 146.59741427 -20.97647858 146.65294075 C-22.43567974 146.6733147 -23.89490494 146.69203586 -25.35414886 146.70907402 C-27.39862246 146.73322817 -29.44293148 146.76326713 -31.48730469 146.79467773 C-32.65090515 146.81022202 -33.81450562 146.8257663 -35.0133667 146.84178162 C-38.20263491 146.91545617 -38.20263491 146.91545617 -42 148 C-42.99 151.63 -43.98 155.26 -45 159 C-43.35 159.66 -41.7 160.32 -40 161 C-38.83842855 161.67351069 -37.69826178 162.38577034 -36.58666992 163.13891602 C-35.96640427 163.55597305 -35.34613861 163.97303009 -34.70707703 164.40272522 C-34.0547963 164.84861496 -33.40251556 165.2945047 -32.73046875 165.75390625 C-32.04946609 166.21482162 -31.36846344 166.675737 -30.66682434 167.15061951 C-29.23571874 168.12082769 -27.80619493 169.09337276 -26.37817383 170.06811523 C-24.18142664 171.56664299 -21.97883638 173.05626618 -19.77539062 174.54492188 C-18.38506295 175.48906267 -16.99507662 176.43370635 -15.60546875 177.37890625 C-14.61186592 178.05077721 -14.61186592 178.05077721 -13.59819031 178.73622131 C-12.04730835 179.79811123 -10.52071009 180.8953345 -9 182 C-9 182.33 -9 182.66 -9 183 C-21.75216758 183.23205564 -34.50383018 183.409562 -47.25768185 183.51812172 C-53.18044224 183.57023546 -59.10175463 183.64087712 -65.02368164 183.75439453 C-70.74262703 183.86333055 -76.46018304 183.92289991 -82.18008614 183.94877243 C-84.35829093 183.96720072 -86.53642256 184.00318982 -88.71403313 184.05730057 C-105.75367656 184.46373892 -105.75367656 184.46373892 -111.25222778 180.88079834 C-113.55474853 178.36104102 -115.25980878 175.92638409 -117 173 C-118.31287458 171.33780101 -119.64388926 169.68961671 -121 168.0625 C-121.65097656 167.2375 -122.30195313 166.4125 -122.97265625 165.5625 C-126.58806165 160.99273903 -130.30364837 156.50433211 -134 152 C-139.74923513 144.98614568 -145.47666198 137.95492408 -151.19335938 130.91455078 C-155.7818077 125.2650574 -160.38705127 119.62950595 -165 114 C-167.24261394 111.25946303 -169.48480462 108.51858102 -171.7265625 105.77734375 C-173.30300376 103.8514851 -174.88125492 101.9271071 -176.4609375 100.00390625 C-177.25757813 99.03324219 -178.05421875 98.06257813 -178.875 97.0625 C-179.59429687 96.18722656 -180.31359375 95.31195313 -181.0546875 94.41015625 C-182.75328187 92.30567286 -184.38412483 90.16795154 -186 88 C-186.20926815 98.50110629 -186.36881498 109.00171023 -186.46630955 119.50448322 C-186.51312244 124.38240436 -186.57653084 129.25889081 -186.67895508 134.13598633 C-186.77732456 138.84994107 -186.830677 143.56252326 -186.85389519 148.27742577 C-186.87042292 150.06880472 -186.90269902 151.86011524 -186.95157051 153.6509037 C-187.29376085 166.03333788 -187.29376085 166.03333788 -181.44506836 176.56323242 C-179.96368926 178.04246581 -178.48209108 179.52147997 -177 181 C-177 181.66 -177 182.32 -177 183 C-195.15 183 -213.3 183 -232 183 C-230.33032498 178.82581245 -229.70221666 177.4868499 -226.92451477 174.47743225 C-222.83172828 169.1383561 -223.14872034 163.87432266 -223.20776367 157.36108398 C-223.18958336 155.48888184 -223.18958336 155.48888184 -223.17103577 153.57885742 C-223.1450281 150.17531653 -223.1458489 146.77397866 -223.16111541 143.37051654 C-223.17030298 140.52252085 -223.16054182 137.67471715 -223.15077668 134.82673317 C-223.12791893 128.10639408 -223.13538666 121.38656869 -223.1628418 114.66625977 C-223.19066458 107.74593536 -223.1712585 100.82690397 -223.12796611 93.90668815 C-223.09214465 87.95052622 -223.08365328 81.99476205 -223.09735852 76.038508 C-223.10538528 72.48735825 -223.10369553 68.93693274 -223.07649803 65.38586235 C-223.04778359 61.42657113 -223.07624492 57.46879519 -223.11010742 53.50952148 C-223.09436676 52.34101151 -223.0786261 51.17250153 -223.06240845 49.96858215 C-223.15823147 44.29321096 -223.39381547 40.92515771 -227.55561829 36.84315491 C-228.5181047 36.07274667 -228.5181047 36.07274667 -229.50003529 35.28677464 C-229.99502364 34.86213901 -230.490012 34.43750338 -231 34 C-231 33.34 -231 32.68 -231 32 C-194.31046098 29.05235273 -194.31046098 29.05235273 -186.609375 35.3984375 C-183.49928911 38.87063481 -181.20624322 42.73427709 -179.11035156 46.88525391 C-177.60074898 49.76040289 -175.63603973 52.06582044 -173.5 54.5 C-172.8090625 55.345625 -172.118125 56.19125 -171.40625 57.0625 C-168.27823847 60.88111148 -165.13915083 64.69054423 -162 68.5 C-157.46433567 74.0041677 -152.93799252 79.51564004 -148.42578125 85.0390625 C-144.58509648 89.72704809 -140.72836249 94.40182577 -136.87109375 99.07617188 C-136.29875 99.77033203 -135.72640625 100.46449219 -135.13671875 101.1796875 C-134.62842529 101.79569824 -134.12013184 102.41170898 -133.59643555 103.04638672 C-131.71357923 105.35050298 -129.85757191 107.67547324 -128 110 C-127.83748097 101.12462893 -127.7132671 92.24977349 -127.6373148 83.37323666 C-127.60085226 79.25097364 -127.55143477 75.1297319 -127.47192383 71.00805664 C-127.39560705 67.02683616 -127.35395724 63.04659491 -127.3358593 59.06469917 C-127.32297046 57.54918571 -127.29779968 56.03372314 -127.2598896 54.51862907 C-126.8118623 46.15913796 -126.8118623 46.15913796 -129.60494995 38.53884888 C-131.47169323 36.6260892 -131.47169323 36.6260892 -133.49278259 35.17189026 C-133.99016434 34.78516647 -134.48754608 34.39844269 -135 34 C-135 33.34 -135 32.68 -135 32 C-118.17 32 -101.34 32 -84 32 C-86 36 -86 36 -88.09562683 37.9783783 C-91.14732586 42.8204335 -90.530719 47.74069871 -90.4699707 53.34594727 C-90.4721611 54.59846283 -90.4743515 55.85097839 -90.47660828 57.14144897 C-90.47852198 60.56936832 -90.46264054 63.99632042 -90.43850732 67.42409635 C-90.41718402 71.01366556 -90.41780496 74.60323335 -90.41581726 78.19285583 C-90.40937356 84.21940419 -90.38814088 90.2457493 -90.35668945 96.2722168 C-90.3163833 104.00549157 -90.29899805 111.738634 -90.28938007 119.47200108 C-90.28107493 126.1244455 -90.26384106 132.77686196 -90.24434257 139.42928195 C-90.24029536 140.85626352 -90.23655553 142.28324599 -90.2331202 143.71022916 C-90.22182068 148.4013538 -90.2016477 153.09236935 -90.17700195 157.78344727 C-90.17431305 158.96745621 -90.17162415 160.15146515 -90.16885376 161.37135315 C-90.1581208 162.99690125 -90.1581208 162.99690125 -90.14717102 164.6552887 C-90.1407608 166.06695234 -90.1407608 166.06695234 -90.13422108 167.50713444 C-90.01003307 169.8136574 -89.65086217 171.7907428 -89 174 C-87.98400252 172.06960479 -86.96802783 170.13919759 -85.95214844 168.20874023 C-85.0573407 166.50883599 -84.16215006 164.80913326 -83.26660156 163.10961914 C-80.9423096 158.69743826 -78.6237909 154.28246212 -76.3203125 149.859375 C-75.88895996 149.03348877 -75.45760742 148.20760254 -75.01318359 147.35668945 C-74.19857817 145.79659569 -73.38623154 144.2353194 -72.57666016 142.67260742 C-70.6179423 138.9278536 -68.5754797 135.28966257 -66.33984375 131.703125 C-61.29096564 123.37255634 -57.13910591 114.53142374 -52.8125 105.8125 C-51.86931086 103.91792451 -50.92603246 102.02339346 -49.98266602 100.12890625 C-45.08341353 90.27755169 -40.20237222 80.41719501 -35.4375 70.5 C-34.82322144 69.22539917 -34.82322144 69.22539917 -34.1965332 67.92504883 C-31.55687974 62.37220562 -29.23560334 56.72600993 -27 51 C-26.40650757 49.70280029 -26.40650757 49.70280029 -25.80102539 48.37939453 C-24.65479234 45.88889714 -24.65479234 45.88889714 -26.3359375 43.2109375 C-27.00882813 42.27507813 -27.68171875 41.33921875 -28.375 40.375 C-32 35.26640927 -32 35.26640927 -32 32 C-26.72 32 -21.44 32 -16 32 C-15.34 30.02 -14.68 28.04 -14 26 C-13.03872043 23.97401098 -12.03501705 21.96776045 -10.99609375 19.98046875 C-10.13274414 18.3243457 -10.13274414 18.3243457 -9.25195312 16.63476562 C-8.65318359 15.49716797 -8.05441406 14.35957031 -7.4375 13.1875 C-6.53354492 11.45209961 -6.53354492 11.45209961 -5.61132812 9.68164062 C-1.14501232 1.14501232 -1.14501232 1.14501232 0 0 Z M-2 83 C-4.42334052 88.67733483 -6.84435637 94.35565292 -9.26318359 100.03491211 C-10.08708225 101.96845557 -10.9116256 103.90172444 -11.73681641 105.8347168 C-12.91997498 108.60654628 -14.10084289 111.37934162 -15.28125 114.15234375 C-15.65310425 115.02213364 -16.0249585 115.89192352 -16.40808105 116.78807068 C-16.74843384 117.58882523 -17.08878662 118.38957977 -17.43945312 119.21459961 C-17.7414563 119.9229747 -18.04345947 120.63134979 -18.35461426 121.3611908 C-19.06107056 122.86152278 -19.06107056 122.86152278 -19 124 C-7.12 124 4.76 124 17 124 C15.3529039 119.02722904 15.3529039 119.02722904 13.42773438 114.21362305 C13.13402954 113.53659836 12.84032471 112.85957367 12.53771973 112.16203308 C12.22620972 111.45242935 11.91469971 110.74282562 11.59375 110.01171875 C11.26838257 109.26791458 10.94301514 108.52411041 10.60778809 107.75776672 C9.92341353 106.19651418 9.23755698 104.6359105 8.55029297 103.07592773 C7.49689458 100.6804381 6.45342692 98.28077394 5.41015625 95.88085938 C4.74279203 94.36171345 4.07484393 92.84282386 3.40625 91.32421875 C3.09473999 90.60449387 2.78322998 89.88476898 2.46228027 89.14323425 C1.00785076 85.39869861 1.00785076 85.39869861 -2 83 Z " fill="#217520" transform="translate(418,0)"/>
<path d="M0 0 C36.68953902 -2.94764727 36.68953902 -2.94764727 44.390625 3.3984375 C47.50071089 6.87063481 49.79375678 10.73427709 51.88964844 14.88525391 C53.39925102 17.76040289 55.36396027 20.06582044 57.5 22.5 C58.1909375 23.345625 58.881875 24.19125 59.59375 25.0625 C62.72176153 28.88111148 65.86084917 32.69054423 69 36.5 C73.53566433 42.0041677 78.06200748 47.51564004 82.57421875 53.0390625 C86.41490352 57.72704809 90.27163751 62.40182577 94.12890625 67.07617188 C94.70125 67.77033203 95.27359375 68.46449219 95.86328125 69.1796875 C96.37157471 69.79569824 96.87986816 70.41170898 97.40356445 71.04638672 C99.28642077 73.35050298 101.14242809 75.67547324 103 78 C103.16251903 69.12462893 103.2867329 60.24977349 103.3626852 51.37323666 C103.39914774 47.25097364 103.44856523 43.1297319 103.52807617 39.00805664 C103.60439295 35.02683616 103.64604276 31.04659491 103.6641407 27.06469917 C103.67702954 25.54918571 103.70220032 24.03372314 103.7401104 22.51862907 C104.1881377 14.15913796 104.1881377 14.15913796 101.39505005 6.53884888 C99.52830677 4.6260892 99.52830677 4.6260892 97.50721741 3.17189026 C96.76114479 2.59180458 96.76114479 2.59180458 96 2 C96 1.34 96 0.68 96 0 C112.83 0 129.66 0 147 0 C145 4 145 4 142.90437317 5.9783783 C139.85267414 10.8204335 140.469281 15.74069871 140.5300293 21.34594727 C140.5278389 22.59846283 140.5256485 23.85097839 140.52339172 25.14144897 C140.52147802 28.56936832 140.53735946 31.99632042 140.56149268 35.42409635 C140.58281598 39.01366556 140.58219504 42.60323335 140.58418274 46.19285583 C140.59062644 52.21940419 140.61185912 58.2457493 140.64331055 64.2722168 C140.6836167 72.00549157 140.70100195 79.738634 140.71061993 87.47200108 C140.71892507 94.1244455 140.73615894 100.77686196 140.75565743 107.42928195 C140.75970464 108.85626352 140.76344447 110.28324599 140.7668798 111.71022916 C140.77817932 116.4013538 140.7983523 121.09236935 140.82299805 125.78344727 C140.82568695 126.96745621 140.82837585 128.15146515 140.83114624 129.37135315 C140.8418792 130.99690125 140.8418792 130.99690125 140.85282898 132.6552887 C140.8592392 134.06695234 140.8592392 134.06695234 140.86577892 135.50713444 C140.99042502 137.82216553 141.39005282 139.77404626 142 142 C142.06548492 143.58211573 142.08578381 145.16670081 142.0625 146.75 C142.05347656 147.54921875 142.04445313 148.3484375 142.03515625 149.171875 C142.01775391 150.07679688 142.01775391 150.07679688 142 151 C125.41664817 152.51831299 125.41664817 152.51831299 120.015625 149.125 C117.73607099 146.53827205 115.8645517 143.8982051 114 141 C112.68280911 139.34121933 111.34954998 137.6950624 110 136.0625 C109.34902344 135.2375 108.69804688 134.4125 108.02734375 133.5625 C104.41193835 128.99273903 100.69635163 124.50433211 97 120 C91.25076487 112.98614568 85.52333802 105.95492408 79.80664062 98.91455078 C75.2181923 93.2650574 70.61294873 87.62950595 66 82 C63.75738606 79.25946303 61.51519538 76.51858102 59.2734375 73.77734375 C57.69699624 71.8514851 56.11874508 69.9271071 54.5390625 68.00390625 C53.74242187 67.03324219 52.94578125 66.06257813 52.125 65.0625 C51.40570312 64.18722656 50.68640625 63.31195313 49.9453125 62.41015625 C48.24671813 60.30567286 46.61587517 58.16795154 45 56 C44.79073185 66.50110629 44.63118502 77.00171023 44.53369045 87.50448322 C44.48687756 92.38240436 44.42346916 97.25889081 44.32104492 102.13598633 C44.22267544 106.84994107 44.169323 111.56252326 44.14610481 116.27742577 C44.12957708 118.06880472 44.09730098 119.86011524 44.04842949 121.6509037 C43.70623915 134.03333788 43.70623915 134.03333788 49.55493164 144.56323242 C51.03631074 146.04246581 52.51790892 147.52147997 54 149 C54 149.66 54 150.32 54 151 C36.18 151 18.36 151 0 151 C1.08340636 145.58296818 1.08340636 145.58296818 4.01298523 142.47743225 C8.17520901 137.13864801 7.85163309 131.91330996 7.79223633 125.36108398 C7.80435654 124.11294922 7.81647675 122.86481445 7.82896423 121.57885742 C7.8549719 118.17531653 7.8541511 114.77397866 7.83888459 111.37051654 C7.82969702 108.52252085 7.83945818 105.67471715 7.84922332 102.82673317 C7.87208107 96.10639408 7.86461334 89.38656869 7.8371582 82.66625977 C7.80933542 75.74593536 7.8287415 68.82690397 7.87203389 61.90668815 C7.90785535 55.95052622 7.91634672 49.99476205 7.90264148 44.038508 C7.89461472 40.48735825 7.89630447 36.93693274 7.92350197 33.38586235 C7.95221641 29.42657113 7.92375508 25.46879519 7.88989258 21.50952148 C7.91350357 19.75675652 7.91350357 19.75675652 7.93759155 17.96858215 C7.84176853 12.29321096 7.60618453 8.92515771 3.44438171 4.84315491 C2.8027241 4.32954942 2.16106649 3.81594393 1.49996471 3.28677464 C1.00497636 2.86213901 0.509988 2.43750338 0 2 C0 1.34 0 0.68 0 0 Z " fill="#FFFFFF" transform="translate(510,32)"/>
<path d="M0 0 C36.68953902 -2.94764727 36.68953902 -2.94764727 44.390625 3.3984375 C47.50071089 6.87063481 49.79375678 10.73427709 51.88964844 14.88525391 C53.39925102 17.76040289 55.36396027 20.06582044 57.5 22.5 C58.1909375 23.345625 58.881875 24.19125 59.59375 25.0625 C62.72176153 28.88111148 65.86084917 32.69054423 69 36.5 C73.53566433 42.0041677 78.06200748 47.51564004 82.57421875 53.0390625 C86.41490352 57.72704809 90.27163751 62.40182577 94.12890625 67.07617188 C94.70125 67.77033203 95.27359375 68.46449219 95.86328125 69.1796875 C96.37157471 69.79569824 96.87986816 70.41170898 97.40356445 71.04638672 C99.28642077 73.35050298 101.14242809 75.67547324 103 78 C103.16251903 69.12462893 103.2867329 60.24977349 103.3626852 51.37323666 C103.39914774 47.25097364 103.44856523 43.1297319 103.52807617 39.00805664 C103.60439295 35.02683616 103.64604276 31.04659491 103.6641407 27.06469917 C103.67702954 25.54918571 103.70220032 24.03372314 103.7401104 22.51862907 C104.1881377 14.15913796 104.1881377 14.15913796 101.39505005 6.53884888 C99.52830677 4.6260892 99.52830677 4.6260892 97.50721741 3.17189026 C96.76114479 2.59180458 96.76114479 2.59180458 96 2 C96 1.34 96 0.68 96 0 C112.83 0 129.66 0 147 0 C145 4 145 4 142.90437317 5.98234558 C139.85934806 10.8074679 140.46914613 15.69464504 140.5300293 21.2824707 C140.5278389 22.5285611 140.5256485 23.77465149 140.52339172 25.0585022 C140.52147767 28.47016328 140.53736659 31.88085299 140.56149268 35.29237008 C140.58283006 38.86939036 140.58219589 42.44640947 140.58418274 46.02348328 C140.59062805 52.03324718 140.6118605 58.0428074 140.64331055 64.05249023 C140.68353955 71.74949885 140.70099214 79.44637454 140.71061993 87.14347553 C140.71894723 93.77761982 140.73617702 100.41173636 140.75565743 107.04585624 C140.75969731 108.46545447 140.76343825 109.88505359 140.7668798 111.30465341 C140.77823283 115.97960202 140.79844874 120.65444347 140.82299805 125.3293457 C140.82568695 126.49897354 140.82837585 127.66860138 140.83114624 128.87367249 C140.86154579 133.50116495 140.92494538 138.02142763 141.57112122 142.608078 C142 146 142 146 141.0390625 148.94140625 C138.63981668 151.36363335 136.87685935 151.76621708 133.50390625 151.94970703 C132.45009766 151.94366455 132.45009766 151.94366455 131.375 151.9375 C130.65441406 151.93347168 129.93382812 151.92944336 129.19140625 151.92529297 C124.11490632 151.63373723 121.49801184 150.52190792 118 146.625 C116.62830075 144.77788226 115.2942285 142.90220277 114 141 C112.67806414 139.34499827 111.34486323 137.69892538 110 136.0625 C109.34902344 135.2375 108.69804687 134.4125 108.02734375 133.5625 C104.41193835 128.99273903 100.69635163 124.50433211 97 120 C91.25076487 112.98614568 85.52333802 105.95492408 79.80664062 98.91455078 C75.2181923 93.2650574 70.61294873 87.62950595 66 82 C63.75738606 79.25946303 61.51519538 76.51858102 59.2734375 73.77734375 C57.69699624 71.8514851 56.11874508 69.9271071 54.5390625 68.00390625 C53.74242187 67.03324219 52.94578125 66.06257813 52.125 65.0625 C51.40570313 64.18722656 50.68640625 63.31195313 49.9453125 62.41015625 C48.24671813 60.30567286 46.61587517 58.16795154 45 56 C44.79073185 66.50110629 44.63118502 77.00171023 44.53369045 87.50448322 C44.48687756 92.38240436 44.42346916 97.25889081 44.32104492 102.13598633 C44.22267544 106.84994107 44.169323 111.56252326 44.14610481 116.27742577 C44.12957708 118.06880472 44.09730098 119.86011524 44.04842949 121.6509037 C43.70623915 134.03333788 43.70623915 134.03333788 49.55493164 144.56323242 C51.03631074 146.04246581 52.51790892 147.52147997 54 149 C54 149.66 54 150.32 54 151 C35.85 151 17.7 151 -1 151 C0.66967502 146.82581245 1.29778334 145.4868499 4.07548523 142.47743225 C8.16827172 137.1383561 7.85127966 131.87432266 7.79223633 125.36108398 C7.81041664 123.48888184 7.81041664 123.48888184 7.82896423 121.57885742 C7.8549719 118.17531653 7.8541511 114.77397866 7.83888459 111.37051654 C7.82969702 108.52252085 7.83945818 105.67471715 7.84922332 102.82673317 C7.87208107 96.10639408 7.86461334 89.38656869 7.8371582 82.66625977 C7.80933542 75.74593536 7.8287415 68.82690397 7.87203389 61.90668815 C7.90785535 55.95052622 7.91634672 49.99476205 7.90264148 44.038508 C7.89461472 40.48735825 7.89630447 36.93693274 7.92350197 33.38586235 C7.95221641 29.42657113 7.92375508 25.46879519 7.88989258 21.50952148 C7.90563324 20.34101151 7.9213739 19.17250153 7.93759155 17.96858215 C7.84176853 12.29321096 7.60618453 8.92515771 3.44438171 4.84315491 C2.8027241 4.32954942 2.16106649 3.81594393 1.49996471 3.28677464 C1.00497636 2.86213901 0.509988 2.43750338 0 2 C0 1.34 0 0.68 0 0 Z " fill="#FEFEFE" transform="translate(187,32)"/>
<path d="M0 0 C20.79 0 41.58 0 63 0 C62.07249807 4.63750965 61.36163136 5.99396577 58.9375 9.703125 C57.14145041 13.58331884 56.72548753 16.00243019 58.1015625 19.98632812 C60.09574826 24.7305131 62.54947699 29.23017934 65 33.75 C65.8612153 35.41152464 66.71812698 37.07528678 67.57080078 38.74121094 C69.25712507 42.02620195 70.9619378 45.30031535 72.68457031 48.56640625 C75.56888918 54.05562468 78.24268144 59.63633731 80.875 65.25 C81.7293267 67.04481489 82.58478443 68.83909188 83.44140625 70.6328125 C84.06619873 71.94427246 84.06619873 71.94427246 84.70361328 73.28222656 C89.11540504 82.53120319 93.55859231 91.76521901 98 101 C98.28955566 101.6020929 98.57911133 102.20418579 98.87744141 102.82452393 C100.71952626 106.65436363 102.56319468 110.48343618 104.40853882 114.31170654 C105.27860637 116.11716794 106.14774491 117.92307694 107.0168457 119.72900391 C108.11440887 122.00424669 109.2163146 124.27740024 110.32275391 126.54833984 C111.49463051 128.95998343 112.65209054 131.37565264 113.79833984 133.79931641 C114.40032194 135.0499945 115.00268737 136.30048818 115.60546875 137.55078125 C116.40247192 139.22587769 116.40247192 139.22587769 117.21557617 140.93481445 C119.10655642 144.18303679 121.31748499 146.3947744 124 149 C124 149.66 124 150.32 124 151 C106.51 151 89.02 151 71 151 C72 147 72 147 74.1875 145.3125 C76.22689768 143.24347341 76.22689768 143.24347341 75.86694336 141.13720703 C74.48702311 135.39893746 72.61085804 130.02035672 70.375 124.5625 C69.73401827 122.98166608 69.09585054 121.3996873 68.4609375 119.81640625 C68.18040527 119.13006104 67.89987305 118.44371582 67.61083984 117.73657227 C67 116 67 116 67 114 C43.57 114 20.14 114 -4 114 C-4.33 115.65 -4.66 117.3 -5 119 C-5.58995934 120.66099068 -6.21964219 122.30826596 -6.8828125 123.94140625 C-7.24503906 124.85470703 -7.60726562 125.76800781 -7.98046875 126.70898438 C-8.74592495 128.61739992 -9.5167985 130.52365117 -10.29296875 132.42773438 C-10.83244141 133.79575195 -10.83244141 133.79575195 -11.3828125 135.19140625 C-11.71684082 136.01842041 -12.05086914 136.84543457 -12.39501953 137.69750977 C-13.07909744 140.30103629 -13.01159657 141.52356748 -12 144 C-10.35353315 145.68662458 -8.68816933 147.35511706 -7 149 C-7 149.66 -7 150.32 -7 151 C-24.49 151 -41.98 151 -60 151 C-59 147 -59 147 -56.35546875 144.09375 C-51.7642316 138.94040428 -49.19784994 132.70313268 -46.3125 126.5 C-45.69653359 125.19709028 -45.0794936 123.89468762 -44.46142578 122.59277344 C-43.2173793 119.96866993 -41.97895294 117.34203931 -40.74560547 114.71289062 C-38.31922307 109.54399452 -35.8451676 104.39807239 -33.375 99.25 C-32.48270466 97.38298846 -31.59077811 95.51580061 -30.69921875 93.6484375 C-24.32720764 80.30929129 -17.93039265 66.98199705 -11.49298096 53.67428589 C-9.98035827 50.54703486 -8.46948596 47.4189692 -6.96337891 44.28857422 C-4.43452818 39.03349558 -1.90022441 33.78307299 0.69921875 28.5625 C1.0849707 27.77617188 1.47072266 26.98984375 1.86816406 26.1796875 C2.55307869 24.78358754 3.24815155 23.39239774 3.95605469 22.0078125 C5.26545063 19.31089091 6.02085359 17.3720719 5.8515625 14.3515625 C4.93795725 11.82867093 3.82280264 9.67199754 2.4375 7.375 C0 3.3286119 0 3.3286119 0 0 Z M31 46 C29.22165104 49.96516484 27.44350207 53.93041929 25.66552734 57.89575195 C25.06239036 59.24082786 24.45920154 60.58588052 23.85595703 61.9309082 C23.56446777 62.5808374 23.27297852 63.2307666 22.97265625 63.90039062 C22.53959167 64.86581284 22.53959167 64.86581284 22.09777832 65.85073853 C21.52433638 67.13032156 20.95165782 68.410247 20.37976074 69.69052124 C19.16240379 72.41517784 17.93748588 75.13526923 16.68554688 77.84423828 C16.32009766 78.63942871 15.95464844 79.43461914 15.578125 80.25390625 C15.2677832 80.91849854 14.95744141 81.58309082 14.63769531 82.26782227 C13.82726072 84.16157469 13.82726072 84.16157469 14 87 C25.55 87 37.1 87 49 87 C48.17404807 81.74803232 48.17404807 81.74803232 46.41772461 77.10595703 C46.09746811 76.4056839 45.77721161 75.70541077 45.44725037 74.98391724 C45.10243118 74.24930267 44.757612 73.51468811 44.40234375 72.7578125 C44.04862198 71.98944061 43.69490021 71.22106873 43.33045959 70.42941284 C42.20623967 67.99141319 41.0720501 65.55820691 39.9375 63.125 C39.17055958 61.46645289 38.40427635 59.80760172 37.63867188 58.1484375 C35.7667042 54.09539882 33.88578523 50.04662702 32 46 C31.67 46 31.34 46 31 46 Z " fill="#FFFFFF" transform="translate(813,32)"/>
<path d="M0 0 C20.79 0 41.58 0 63 0 C62.07249807 4.63750965 61.36163136 5.99396577 58.9375 9.703125 C57.14145041 13.58331884 56.72548753 16.00243019 58.1015625 19.98632812 C60.09574826 24.7305131 62.54947699 29.23017934 65 33.75 C65.8612153 35.41152464 66.71812698 37.07528678 67.57080078 38.74121094 C69.25712507 42.02620195 70.9619378 45.30031535 72.68457031 48.56640625 C75.56888918 54.05562468 78.24268144 59.63633731 80.875 65.25 C81.7293267 67.04481489 82.58478443 68.83909188 83.44140625 70.6328125 C84.06619873 71.94427246 84.06619873 71.94427246 84.70361328 73.28222656 C89.11540504 82.53120319 93.55859231 91.76521901 98 101 C98.28955566 101.6020929 98.57911133 102.20418579 98.87744141 102.82452393 C100.71952626 106.65436363 102.56319468 110.48343618 104.40853882 114.31170654 C105.27860637 116.11716794 106.14774491 117.92307694 107.0168457 119.72900391 C108.11440887 122.00424669 109.2163146 124.27740024 110.32275391 126.54833984 C111.49463051 128.95998343 112.65209054 131.37565264 113.79833984 133.79931641 C114.40032194 135.0499945 115.00268737 136.30048818 115.60546875 137.55078125 C116.40247192 139.22587769 116.40247192 139.22587769 117.21557617 140.93481445 C119.10655642 144.18303679 121.31748499 146.3947744 124 149 C124 149.66 124 150.32 124 151 C106.51 151 89.02 151 71 151 C72 147 72 147 74.1875 145.3125 C76.22689768 143.24347341 76.22689768 143.24347341 75.86694336 141.13720703 C74.48702311 135.39893746 72.61085804 130.02035672 70.375 124.5625 C69.73401827 122.98166608 69.09585054 121.3996873 68.4609375 119.81640625 C68.18040527 119.13006104 67.89987305 118.44371582 67.61083984 117.73657227 C67 116 67 116 67 114 C43.57 114 20.14 114 -4 114 C-4.33 115.65 -4.66 117.3 -5 119 C-5.58995934 120.66099068 -6.21964219 122.30826596 -6.8828125 123.94140625 C-7.24503906 124.85470703 -7.60726562 125.76800781 -7.98046875 126.70898438 C-8.74592495 128.61739992 -9.5167985 130.52365117 -10.29296875 132.42773438 C-10.83244141 133.79575195 -10.83244141 133.79575195 -11.3828125 135.19140625 C-11.71684082 136.01842041 -12.05086914 136.84543457 -12.39501953 137.69750977 C-13.07909744 140.30103629 -13.01159657 141.52356748 -12 144 C-10.35353315 145.68662458 -8.68816933 147.35511706 -7 149 C-7 149.66 -7 150.32 -7 151 C-24.49 151 -41.98 151 -60 151 C-59 147 -59 147 -56.35546875 144.09375 C-51.7642316 138.94040428 -49.19784994 132.70313268 -46.3125 126.5 C-45.69653359 125.19709028 -45.0794936 123.89468762 -44.46142578 122.59277344 C-43.2173793 119.96866993 -41.97895294 117.34203931 -40.74560547 114.71289062 C-38.31922307 109.54399452 -35.8451676 104.39807239 -33.375 99.25 C-32.48270466 97.38298846 -31.59077811 95.51580061 -30.69921875 93.6484375 C-24.32720764 80.30929129 -17.93039265 66.98199705 -11.49298096 53.67428589 C-9.98035827 50.54703486 -8.46948596 47.4189692 -6.96337891 44.28857422 C-4.43452818 39.03349558 -1.90022441 33.78307299 0.69921875 28.5625 C1.0849707 27.77617188 1.47072266 26.98984375 1.86816406 26.1796875 C2.55307869 24.78358754 3.24815155 23.39239774 3.95605469 22.0078125 C5.26545063 19.31089091 6.02085359 17.3720719 5.8515625 14.3515625 C4.93795725 11.82867093 3.82280264 9.67199754 2.4375 7.375 C0 3.3286119 0 3.3286119 0 0 Z M31 46 C29.22165104 49.96516484 27.44350207 53.93041929 25.66552734 57.89575195 C25.06239036 59.24082786 24.45920154 60.58588052 23.85595703 61.9309082 C23.56446777 62.5808374 23.27297852 63.2307666 22.97265625 63.90039062 C22.53959167 64.86581284 22.53959167 64.86581284 22.09777832 65.85073853 C21.52433638 67.13032156 20.95165782 68.410247 20.37976074 69.69052124 C19.16240379 72.41517784 17.93748588 75.13526923 16.68554688 77.84423828 C16.32009766 78.63942871 15.95464844 79.43461914 15.578125 80.25390625 C15.2677832 80.91849854 14.95744141 81.58309082 14.63769531 82.26782227 C13.82726072 84.16157469 13.82726072 84.16157469 14 87 C25.55 87 37.1 87 49 87 C48.17404807 81.74803232 48.17404807 81.74803232 46.41772461 77.10595703 C46.09746811 76.4056839 45.77721161 75.70541077 45.44725037 74.98391724 C45.10243118 74.24930267 44.757612 73.51468811 44.40234375 72.7578125 C44.04862198 71.98944061 43.69490021 71.22106873 43.33045959 70.42941284 C42.20623967 67.99141319 41.0720501 65.55820691 39.9375 63.125 C39.17055958 61.46645289 38.40427635 59.80760172 37.63867188 58.1484375 C35.7667042 54.09539882 33.88578523 50.04662702 32 46 C31.67 46 31.34 46 31 46 Z " fill="#FFFFFF" transform="translate(60,32)"/>
<path d="M0 0 C9 2 9 2 12 3 C13.3675857 3.0940387 14.73924285 3.13482199 16.11004639 3.14044189 C17.3631813 3.14900711 17.3631813 3.14900711 18.64163208 3.15774536 C19.55492279 3.15886322 20.4682135 3.15998108 21.40917969 3.16113281 C22.37373077 3.16609772 23.33828186 3.17106262 24.33206177 3.17617798 C27.5286734 3.19080364 30.72523538 3.19760276 33.921875 3.203125 C36.14284263 3.20887669 38.36381024 3.21463442 40.58477783 3.22039795 C45.24532299 3.23090948 49.9058509 3.23675097 54.56640625 3.24023438 C60.53282892 3.24571542 66.49902297 3.26973465 72.46537399 3.29820633 C77.05508078 3.31684905 81.64473273 3.32203922 86.23447418 3.32357025 C88.43365985 3.32659426 90.63284462 3.33461428 92.8319931 3.34775543 C95.91258518 3.36484763 98.99262167 3.3629276 102.07324219 3.35644531 C102.97843597 3.3656601 103.88362976 3.37487488 104.81625366 3.3843689 C110.35598463 3.34793153 114.01864748 2.40002241 119 0 C119.99 0 120.98 0 122 0 C122 12.87 122 25.74 122 39 C118 38 118 38 115.74536133 36.46948242 C112.19552501 34.56939662 109.00564022 34.52327416 105.07421875 34.48828125 C104.32662796 34.47033005 103.57903717 34.45237885 102.80879211 34.43388367 C100.43508442 34.37996151 98.06157568 34.34594446 95.6875 34.3125 C94.07223805 34.27931079 92.45700229 34.24481965 90.84179688 34.20898438 C86.89467524 34.12424601 82.94761073 34.05734951 79 34 C78.9220194 47.63091378 78.89275479 61.26099262 78.92484188 74.8921175 C78.93823046 81.22244553 78.9351481 87.55185416 78.89379883 93.88208008 C78.85447307 99.99688396 78.85923009 106.1102415 78.89392281 112.2250576 C78.89950061 114.55212139 78.88947591 116.87927906 78.86323357 119.20620155 C78.27016594 134.02772413 78.27016594 134.02772413 84.56860352 146.82885742 C85.39401138 147.59606613 86.21941925 148.36327484 87.06983948 149.1537323 C87.70679245 149.76300064 88.34374542 150.37226898 89 151 C89 151.99 89 152.98 89 154 C71.18 154 53.36 154 35 154 C36.10785342 149.56858634 36.8130064 149.19030504 40 146.26025391 C46.92094493 137.76606851 45.09273814 126.22236958 45 115.8359375 C45.00752482 113.47367011 45.0185643 111.11141154 45.03295898 108.74917603 C45.06130869 102.55768501 45.04215691 96.36723216 45.01287842 90.17578125 C44.99143622 83.84758839 45.01523961 77.51958018 45.03515625 71.19140625 C45.06754598 58.79403702 45.04971959 46.39729296 45 34 C40.30368842 34.04442043 35.60868737 34.11452783 30.91308594 34.20751953 C29.31879153 34.23558582 27.72436168 34.25687113 26.12988281 34.27099609 C14.01469867 34.3285829 14.01469867 34.3285829 3 39 C2.01 39 1.02 39 0 39 C0 26.13 0 13.26 0 0 Z " fill="#FFFFFF" transform="translate(658,29)"/>
<path d="M0 0 C2.75230026 2.10341802 3.88552338 4.5668308 5.2265625 7.7109375 C5.6184375 8.62617187 6.0103125 9.54140625 6.4140625 10.484375 C6.81367188 11.43828125 7.21328125 12.3921875 7.625 13.375 C8.03234375 14.32117188 8.4396875 15.26734375 8.859375 16.2421875 C11.08492786 21.4891863 11.08492786 21.4891863 12 24 C12.2794043 24.73782715 12.55880859 25.4756543 12.84667969 26.23583984 C13.09283629 30.67371411 11.18507248 34.19570508 9.4140625 38.203125 C9.03768646 39.08152039 8.66131042 39.95991577 8.27352905 40.8649292 C7.06964699 43.66544432 5.84732287 46.45749194 4.625 49.25 C3.8087373 51.14533481 2.9936194 53.04116309 2.1796875 54.9375 C0.68971556 58.39254197 -0.80105858 61.84716612 -2.31005859 65.29394531 C-2.61285736 65.98723938 -2.91565613 66.68053345 -3.22763062 67.39483643 C-4 69 -4 69 -5 70 C-7.18520618 70.12236852 -9.37409113 70.17984566 -11.5625 70.2109375 C-12.9310007 70.23904745 -14.29949009 70.26771208 -15.66796875 70.296875 C-17.82242003 70.33782859 -19.97666967 70.37471138 -22.13134766 70.40136719 C-33.03773348 70.54796519 -42.01438149 71.31838623 -51 78 C-49.42274255 72.69129885 -47.09662049 67.95172028 -44.59765625 63.03515625 C-44.16367523 62.17262238 -43.72969421 61.3100885 -43.28256226 60.42141724 C-41.87931996 57.63336053 -40.47092561 54.84794129 -39.0625 52.0625 C-37.14556146 48.25925531 -35.23196695 44.4543407 -33.3203125 40.6484375 C-32.85356613 39.7195018 -32.38681976 38.7905661 -31.90592957 37.83348083 C-27.86944644 29.78019775 -23.95624531 21.67379246 -20.19750977 13.48657227 C-15.5323338 3.47719471 -15.5323338 3.47719471 -10.75 0.6875 C-6.94356112 -0.26410972 -3.93316607 -0.31719081 0 0 Z " fill="#F6B321" transform="translate(404,54)"/>
<path d="M0 0 C1.42345734 0.00560466 2.84692052 0.00987064 4.27038574 0.01286316 C7.99243527 0.02424365 11.71412605 0.05365084 15.43603516 0.0869751 C19.24376576 0.11782382 23.05155509 0.13139992 26.859375 0.14648438 C34.31268144 0.17852838 41.76561947 0.2312392 49.21875 0.29296875 C51.85875 5.57296875 54.49875 10.85296875 57.21875 16.29296875 C55.24036133 16.3180249 53.26197266 16.34308105 51.22363281 16.36889648 C44.68570053 16.4528058 38.14783841 16.54107146 31.61000443 16.63230801 C27.6462808 16.68746296 23.6825497 16.74087098 19.71875 16.7902832 C15.89319278 16.83803645 12.06772343 16.89038302 8.24227142 16.9459095 C6.78307026 16.96628345 5.32384506 16.98500461 3.86460114 17.00204277 C1.82012754 17.02619692 -0.22418148 17.05623588 -2.26855469 17.08764648 C-4.01395538 17.11096291 -4.01395538 17.11096291 -5.7946167 17.13475037 C-8.30088697 17.26752128 -10.39371221 17.56279787 -12.78125 18.29296875 C-15.10814858 26.77364869 -14.99302035 32.71686492 -10.62109375 40.49609375 C-9.78125 42.29296875 -9.78125 42.29296875 -9.78125 45.29296875 C-16.39193993 45.84385958 -21.28606488 45.16839407 -26.78125 41.29296875 C-31.58608976 37.06129515 -33.42197167 32.21295193 -34 25.90625 C-34.24569252 19.22136595 -33.5963243 13.51574347 -29.08203125 8.34765625 C-20.27283121 0.07496937 -11.59265662 -0.13480944 0 0 Z " fill="#F89F0A" transform="translate(388.78125,129.70703125)"/>
<path d="M0 0 C21.10344828 0 21.10344828 0 27 3 C29.42131764 5.71481069 29.90570771 7.36689464 30.4375 10.9375 C29.88968076 14.77223467 28.32367223 16.95018019 26 20 C26.9590625 20.7425 26.9590625 20.7425 27.9375 21.5 C30.69914101 24.84744365 31.22259803 27.70214576 31 32 C29.41186988 35.76136081 27.4499705 37.87141485 24 40 C21.34277344 40.34057617 21.34277344 40.34057617 18.359375 40.29296875 C17.39483398 40.28547607 16.43029297 40.2779834 15.43652344 40.27026367 C14.2199707 40.24295166 13.00341797 40.21563965 11.75 40.1875 C5.93375 40.0946875 5.93375 40.0946875 0 40 C0 26.8 0 13.6 0 0 Z M9 8 C9 10.97 9 13.94 9 17 C14.53069113 17.43933257 14.53069113 17.43933257 19.5 15.5 C19.995 15.005 20.49 14.51 21 14 C20.62095792 10.70924004 20.62095792 10.70924004 19 8 C17.31391034 7.92794489 15.62499341 7.91613932 13.9375 7.9375 C13.01839844 7.94652344 12.09929687 7.95554688 11.15234375 7.96484375 C10.44207031 7.97644531 9.73179687 7.98804688 9 8 Z M9 24 C9 26.97 9 29.94 9 33 C10.60379341 33.05416188 12.20811406 33.09286638 13.8125 33.125 C14.70582031 33.14820313 15.59914063 33.17140625 16.51953125 33.1953125 C19.25402714 33.18285827 19.25402714 33.18285827 22 31 C22.41666667 28.5 22.41666667 28.5 22 26 C20.16262173 23.72783152 20.16262173 23.72783152 17.3984375 23.8046875 C16.40070313 23.82789063 15.40296875 23.85109375 14.375 23.875 C13.37210937 23.89304688 12.36921875 23.91109375 11.3359375 23.9296875 C10.17964844 23.96449219 10.17964844 23.96449219 9 24 Z " fill="#FFFFFF" transform="translate(271,215)"/>
<path d="M0 0 C21.10344828 0 21.10344828 0 27 3 C29.42131764 5.71481069 29.90570771 7.36689464 30.4375 10.9375 C29.88968076 14.77223467 28.32367223 16.95018019 26 20 C26.845625 20.804375 27.69125 21.60875 28.5625 22.4375 C30.84308948 25.18723932 31.39040564 26.99374787 31.1875 30.5625 C30.87161785 33.90608271 29.88999153 35.13186075 27.69921875 37.7578125 C23.00623943 41.39696435 17.26506576 40.52674211 11.625 40.3125 C5.870625 40.1578125 5.870625 40.1578125 0 40 C0 26.8 0 13.6 0 0 Z M9 8 C9 10.97 9 13.94 9 17 C10.8871875 17.0309375 10.8871875 17.0309375 12.8125 17.0625 C13.52019531 17.07410156 14.22789062 17.08570313 14.95703125 17.09765625 C17.20305461 17.08263217 17.20305461 17.08263217 20 16 C20.67801034 13.09926819 20.67801034 13.09926819 21 10 C19.18806994 7.75675164 19.18806994 7.75675164 16.6171875 7.8046875 C15.71226562 7.82789063 14.80734375 7.85109375 13.875 7.875 C12.96492187 7.89304688 12.05484375 7.91109375 11.1171875 7.9296875 C10.41851562 7.95289063 9.71984375 7.97609375 9 8 Z M9 24 C9 26.97 9 29.94 9 33 C10.79133978 33.05391993 12.58313899 33.09275571 14.375 33.125 C15.37273437 33.14820313 16.37046875 33.17140625 17.3984375 33.1953125 C20.16262173 33.27216848 20.16262173 33.27216848 22 31 C22.33333333 28.5 22.33333333 28.5 22 26 C20.16262173 23.72783152 20.16262173 23.72783152 17.3984375 23.8046875 C16.40070313 23.82789063 15.40296875 23.85109375 14.375 23.875 C13.37210938 23.89304688 12.36921875 23.91109375 11.3359375 23.9296875 C10.17964844 23.96449219 10.17964844 23.96449219 9 24 Z " fill="#FFFFFF" transform="translate(159,215)"/>
<path d="M0 0 C2.91074551 1.33916428 3.89246976 2.43678755 6 5 C6.375 7.8125 6.375 7.8125 6 10 C3.36 10 0.72 10 -2 10 C-2.33 9.34 -2.66 8.68 -3 8 C-4.32 8 -5.64 8 -7 8 C-6.47606693 12.06402139 -5.40270223 14.13633304 -2.625 17.125 C-2.01914062 17.78757813 -1.41328125 18.45015625 -0.7890625 19.1328125 C0.78676002 20.77744823 2.37954688 22.39942974 4 24 C4.474375 23.175 4.94875 22.35 5.4375 21.5 C8.34926408 18.65925455 8.88515746 18.65706817 12.75 18.6875 C14.1525 18.790625 15.555 18.89375 17 19 C15.02 23.29 13.04 27.58 11 32 C12.32 32.66 13.64 33.32 15 34 C16.85290233 35.88215868 18.36715588 37.91358806 20 40 C18.08364783 40.05423638 16.16685075 40.09289963 14.25 40.125 C13.18265625 40.14820313 12.1153125 40.17140625 11.015625 40.1953125 C8.02336383 40.0015132 6.59976184 39.33144536 4 38 C3.154375 38.45375 2.30875 38.9075 1.4375 39.375 C-4.41357216 42.14096139 -10.45029501 41.91060892 -16.5 39.75 C-20.6522474 36.84342682 -21.74224761 35.14147488 -22.875 30.125 C-23.25127466 26.00133692 -22.34257837 23.47347827 -20 20 C-19.29359375 19.55011719 -18.5871875 19.10023438 -17.859375 18.63671875 C-17.24578125 18.09660156 -16.6321875 17.55648437 -16 17 C-15.84709163 14.63604877 -15.84709163 14.63604877 -16.4375 12.125 C-17.13155045 7.31572109 -17.13155045 7.31572109 -15.75 4 C-11.3093045 -1.07508057 -6.31228802 -0.8812026 0 0 Z M-10 22 C-12.50144276 24.11059233 -13.86276688 25.29668024 -14.5 28.5625 C-14.18374937 31.07989831 -14.18374937 31.07989831 -12.4375 32.875 C-8.99951529 34.46176217 -6.63171862 33.80704858 -3 33 C-2.34 32.67 -1.68 32.34 -1 32 C-2.38188453 28.78956118 -3.92421903 26.95063635 -6.625 24.75 C-7.25664062 24.22921875 -7.88828125 23.7084375 -8.5390625 23.171875 C-9.02117187 22.78515625 -9.50328125 22.3984375 -10 22 Z " fill="#FFFFFF" transform="translate(407,215)"/>
<path d="M0 0 C21.15471698 0 21.15471698 0 26 3 C29.05416824 6.20315206 30.22424684 8.71541644 30.4375 13.0625 C29.99235734 17.06878398 29.54491796 18.92854728 27 22 C25.35275659 23.0316816 23.68773129 24.03597673 22 25 C22.5775 25.91523438 23.155 26.83046875 23.75 27.7734375 C24.5002341 28.97381205 25.25022133 30.17434092 26 31.375 C26.3815625 31.97828125 26.763125 32.5815625 27.15625 33.203125 C30 37.7734375 30 37.7734375 30 40 C26.7 40 23.4 40 20 40 C19.45730469 39.00097656 18.91460937 38.00195312 18.35546875 36.97265625 C17.63329987 35.66900073 16.91061681 34.36562995 16.1875 33.0625 C15.65286133 32.0734668 15.65286133 32.0734668 15.10742188 31.06445312 C12.97324509 27.00958993 12.97324509 27.00958993 9 25 C9 29.95 9 34.9 9 40 C6.03 40 3.06 40 0 40 C0 26.8 0 13.6 0 0 Z M9 8 C9 11.3 9 14.6 9 18 C11.413125 18.061875 11.413125 18.061875 13.875 18.125 C14.77992188 18.14820313 15.68484375 18.17140625 16.6171875 18.1953125 C19.18806994 18.24324836 19.18806994 18.24324836 21 16 C20.83582968 12.43407381 20.83582968 12.43407381 20 9 C16.57067929 7.28533964 12.78283935 7.94595944 9 8 Z " fill="#FFFFFF" transform="translate(235,215)"/>
<path d="M0 0 C21.23529412 0 21.23529412 0 26.9375 4.125 C29.54508571 7.75981645 30.29716631 10.55124552 30 15 C28.32908103 19.82709925 25.97712298 21.94869909 22 25 C22.5775 25.99902344 23.155 26.99804688 23.75 28.02734375 C24.50011259 29.33066437 25.25010648 30.63405332 26 31.9375 C26.3815625 32.59685547 26.763125 33.25621094 27.15625 33.93554688 C30 38.88671875 30 38.88671875 30 40 C26.39699031 40.86383634 23.56627257 41.10625169 20 40 C16.68675727 36.17336343 12 30.2483596 12 25 C11.01 25 10.02 25 9 25 C9 29.95 9 34.9 9 40 C6.03 40 3.06 40 0 40 C0 26.8 0 13.6 0 0 Z M9 8 C9 11.3 9 14.6 9 18 C11.413125 18.0928125 11.413125 18.0928125 13.875 18.1875 C14.77992188 18.22230469 15.68484375 18.25710937 16.6171875 18.29296875 C17.40351563 18.19628906 18.18984375 18.09960938 19 18 C21.29637779 15.24104365 21.29637779 15.24104365 20.75 12.4375 C20.16191948 9.84999433 20.16191948 9.84999433 18 8 C14.98173347 7.72759327 12.03629378 7.91324875 9 8 Z " fill="#FFFFFF" transform="translate(337,215)"/>
<path d="M0 0 C21.23529412 0 21.23529412 0 26.9375 4.125 C29.54508571 7.75981645 30.29716631 10.55124552 30 15 C28.32908103 19.82709925 25.97712298 21.94869909 22 25 C22.5775 25.99902344 23.155 26.99804688 23.75 28.02734375 C24.50011259 29.33066437 25.25010648 30.63405332 26 31.9375 C26.3815625 32.59685547 26.763125 33.25621094 27.15625 33.93554688 C30 38.88671875 30 38.88671875 30 40 C26.39699031 40.86383634 23.56627257 41.10625169 20 40 C16.68675727 36.17336343 12 30.2483596 12 25 C11.01 25 10.02 25 9 25 C9 29.95 9 34.9 9 40 C6.03 40 3.06 40 0 40 C0 26.8 0 13.6 0 0 Z M9 8 C9 11.3 9 14.6 9 18 C11.413125 18.0928125 11.413125 18.0928125 13.875 18.1875 C14.77992188 18.22230469 15.68484375 18.25710937 16.6171875 18.29296875 C17.40351562 18.19628906 18.18984375 18.09960938 19 18 C21.29637779 15.24104365 21.29637779 15.24104365 20.75 12.4375 C20.16191948 9.84999433 20.16191948 9.84999433 18 8 C14.98173347 7.72759327 12.03629378 7.91324875 9 8 Z " fill="#FFFFFF" transform="translate(539,215)"/>
<path d="M0 0 C2.97 0 5.94 0 9 0 C9 5.61 9 11.22 9 17 C14.28 17 19.56 17 25 17 C25 11.39 25 5.78 25 0 C27.64 0 30.28 0 33 0 C33 13.2 33 26.4 33 40 C30.36 40 27.72 40 25 40 C25 34.72 25 29.44 25 24 C19.72 24 14.44 24 9 24 C9 29.28 9 34.56 9 40 C6.03 40 3.06 40 0 40 C0 26.8 0 13.6 0 0 Z " fill="#FFFFFF" transform="translate(443,215)"/>
<path d="M0 0 C3.3 0 6.6 0 10 0 C11.51556602 4.08791342 13.02701602 8.1773195 14.53491211 12.26806641 C15.04684487 13.65518721 15.55983823 15.04191712 16.07397461 16.42822266 C18.9631171 24.22074913 21.72443691 32.00058028 24 40 C21.03 40 18.06 40 15 40 C14.66355469 39.02804688 14.32710938 38.05609375 13.98046875 37.0546875 C12.25975855 33.62091276 12.25975855 33.62091276 8.42578125 33.1953125 C7.05551014 33.14235516 5.68378449 33.11987849 4.3125 33.125 C3.61060547 33.104375 2.90871094 33.08375 2.18554688 33.0625 C0.45754532 33.01547955 -1.27136406 33.00425249 -3 33 C-3.144375 33.969375 -3.28875 34.93875 -3.4375 35.9375 C-4 39 -4 39 -5 40 C-8.00003445 40.14177857 -10.99757235 40.04228771 -14 40 C-11.82945462 32.35077545 -9.24891789 24.87226576 -6.55615234 17.39257812 C-5.86647685 15.47631846 -5.1810116 13.55858971 -4.49609375 11.640625 C-1.14074248 2.28148496 -1.14074248 2.28148496 0 0 Z M4 13 C3.32942113 14.7902061 2.6636531 16.58221489 2 18.375 C1.62875 19.37273437 1.2575 20.37046875 0.875 21.3984375 C-0.10626277 23.85848061 -0.10626277 23.85848061 0 26 C3.3 26 6.6 26 10 26 C8.68 21.71 7.36 17.42 6 13 C5.34 13 4.68 13 4 13 Z " fill="#FFFFFF" transform="translate(495,215)"/>
<path d="M0 0 C3.3 0 6.6 0 10 0 C11.99794087 5.3736411 13.99166265 10.74882095 15.98144531 16.12548828 C16.6593155 17.95534783 17.33834822 19.78477715 18.01855469 21.61376953 C18.99457951 24.23879257 19.96644911 26.86532112 20.9375 29.4921875 C21.24373291 30.31306854 21.54996582 31.13394958 21.86547852 31.97970581 C24 37.77225659 24 37.77225659 24 40 C20.7 40 17.4 40 14 40 C13.34 38.02 12.68 36.04 12 34 C7.05 33.67 2.1 33.34 -3 33 C-3.33 34.98 -3.66 36.96 -4 39 C-5 40 -5 40 -7.06640625 40.09765625 C-10.53320312 40.04882812 -10.53320312 40.04882812 -14 40 C-11.82945462 32.35077545 -9.24891789 24.87226576 -6.55615234 17.39257812 C-5.86647685 15.47631846 -5.1810116 13.55858971 -4.49609375 11.640625 C-1.14074248 2.28148496 -1.14074248 2.28148496 0 0 Z M4 12 C3.32968281 13.9570868 2.66385317 15.91571113 2 17.875 C1.62875 18.96554688 1.2575 20.05609375 0.875 21.1796875 C-0.098772 23.82620854 -0.098772 23.82620854 0 26 C3.3 26 6.6 26 10 26 C9.3844197 23.85144546 8.75726569 21.70620375 8.125 19.5625 C7.77695313 18.36753906 7.42890625 17.17257813 7.0703125 15.94140625 C6.3391709 12.88308969 6.3391709 12.88308969 4 12 Z " fill="#FFFFFF" transform="translate(207,215)"/>
<path d="M0 0 C3.5843135 2.44782385 5.19251971 4.27007883 6.25 8.5 C6.353125 9.2425 6.45625 9.985 6.5625 10.75 C3.19845486 10.9811176 -0.08064691 11.1159129 -3.4375 10.75 C-5.75 8.6875 -5.75 8.6875 -7.4375 6.75 C-10.14455512 6.89025199 -10.14455512 6.89025199 -12.4375 7.75 C-12.43111001 10.19213923 -12.43111001 10.19213923 -11.4375 12.75 C-8.61970242 14.24028603 -8.61970242 14.24028603 -5.1875 15.1875 C0.51602316 17.19719367 3.66030968 18.37557349 6.5625 23.75 C7.11207629 27.66573105 6.94676299 29.90462142 5.3125 33.5 C2.73673499 36.81169787 0.53909717 38.42446761 -3.4375 39.75 C-9.29563495 40.14054233 -13.17792244 39.68322595 -18.4375 36.75 C-21.16814626 34.08937031 -22.34818971 32.75474077 -22.6875 28.9375 C-22.605 28.215625 -22.5225 27.49375 -22.4375 26.75 C-19.4675 26.75 -16.4975 26.75 -13.4375 26.75 C-12.7775 28.07 -12.1175 29.39 -11.4375 30.75 C-9.5852633 31.75478037 -9.5852633 31.75478037 -7.4375 31.75 C-5.21978936 30.89209817 -5.21978936 30.89209817 -3.4375 29.75 C-3.39793326 27.30670688 -3.39793326 27.30670688 -4.4375 24.75 C-7.52002325 23.21980847 -7.52002325 23.21980847 -11.25 22.25 C-16.57112885 20.70604551 -19.49379571 19.56895295 -22.4375 14.75 C-23.05664128 9.8742624 -22.94857738 7.77215476 -20.75 3.375 C-15.42427804 -2.67041412 -7.25619101 -2.63861491 0 0 Z " fill="#FFFFFF" transform="translate(596.4375,216.25)"/>
<path d="M0 0 C4.47883666 2.1594391 6.91418379 4.48073155 9 9 C9 9.99 9 10.98 9 12 C5.7 12 2.4 12 -1 12 C-1.33 11.01 -1.66 10.02 -2 9 C-5.97754128 8.26665571 -5.97754128 8.26665571 -10 8 C-10.08782737 10.9130598 -10.08782737 10.9130598 -9 14 C-6.44270947 15.3732467 -4.34856624 16.26945596 -1.625 17.125 C5.43657156 19.44788538 5.43657156 19.44788538 7.9453125 21.90625 C9.79694102 25.58207551 9.74207226 28.99835801 9 33 C7.28424492 36.33972079 4.92273432 38.45134716 1.6875 40.375 C-4.79968969 41.88364877 -9.52625111 41.41762463 -15.30078125 38.20703125 C-17.73996098 36.47437255 -18.89491005 34.76272487 -20 32 C-20 30.68 -20 29.36 -20 28 C-17.03 28 -14.06 28 -11 28 C-10.34 29.32 -9.68 30.64 -9 32 C-6.36 32 -3.72 32 -1 32 C-1 30.35 -1 28.7 -1 27 C-1.80824219 26.67386719 -2.61648438 26.34773438 -3.44921875 26.01171875 C-4.51785156 25.57472656 -5.58648438 25.13773438 -6.6875 24.6875 C-7.74324219 24.25824219 -8.79898438 23.82898438 -9.88671875 23.38671875 C-17.23470622 20.11377578 -17.23470622 20.11377578 -19.3125 17.08984375 C-20.5611252 13.29430692 -20.18020308 9.78339388 -19 6 C-13.85403808 -0.37619188 -7.66551263 -0.77954366 0 0 Z " fill="#FFFFFF" transform="translate(737,215)"/>
<path d="M0 0 C3.774375 -0.020625 7.54875 -0.04125 11.4375 -0.0625 C12.62915771 -0.071604 13.82081543 -0.08070801 15.04858398 -0.09008789 C16.44572632 -0.09383423 16.44572632 -0.09383423 17.87109375 -0.09765625 C18.82943115 -0.10289307 19.78776855 -0.10812988 20.77514648 -0.11352539 C23 0 23 0 24 1 C24 3.31 24 5.62 24 8 C19.05 8 14.1 8 9 8 C9 10.97 9 13.94 9 17 C13.29 17 17.58 17 22 17 C22 19.31 22 21.62 22 24 C17.71 24 13.42 24 9 24 C9 26.97 9 29.94 9 33 C13.95 33 18.9 33 24 33 C24 35.31 24 37.62 24 40 C16.08 40 8.16 40 0 40 C0 26.8 0 13.6 0 0 Z " fill="#FFFFFF" transform="translate(307,215)"/>
<path d="M0 0 C3.3 0 6.6 0 10 0 C12.64 5.28 15.28 10.56 18 16 C20.64 10.72 23.28 5.44 26 0 C28.97 0 31.94 0 35 0 C33.93528603 3.74779318 32.50250517 7.05923843 30.65234375 10.46875 C25.23105666 20.47026098 21.34480283 28.36061494 22 40 C19.03 40 16.06 40 13 40 C13.06703125 39.18402344 13.1340625 38.36804688 13.203125 37.52734375 C13.37145827 24.63582068 7.41678619 15.03922885 1.08569336 4.1003418 C0 2 0 2 0 0 Z " fill="#FFFFFF" transform="translate(638,215)"/>
<path d="M0 0 C9.57 0 19.14 0 29 0 C29 2.64 29 5.28 29 8 C25.7 8 22.4 8 19 8 C19 18.56 19 29.12 19 40 C16.03 40 13.06 40 10 40 C10 29.44 10 18.88 10 8 C6.7 8 3.4 8 0 8 C0 5.36 0 2.72 0 0 Z " fill="#FFFFFF" transform="translate(607,215)"/>
<path d="M0 0 C9.9 0 19.8 0 30 0 C30 2.64 30 5.28 30 8 C26.37 8 22.74 8 19 8 C19 18.56 19 29.12 19 40 C16.36 40 13.72 40 11 40 C11 29.44 11 18.88 11 8 C7.37 8 3.74 8 0 8 C0 5.36 0 2.72 0 0 Z " fill="#FFFFFF" transform="translate(750,215)"/>
<path d="M0 0 C2.64 0 5.28 0 8 0 C9 1 9 1 9.11352539 4.05102539 C9.11336634 5.39991271 9.10767612 6.74880614 9.09765625 8.09765625 C9.0962413 8.80651474 9.09482635 9.51537323 9.09336853 10.24571228 C9.08775443 12.51801712 9.07519963 14.79022475 9.0625 17.0625 C9.05748681 18.59960796 9.05292359 20.13671745 9.04882812 21.67382812 C9.03778042 25.44925642 9.02050641 29.22461171 9 33 C12.96 33 16.92 33 21 33 C21 35.31 21 37.62 21 40 C14.07 40 7.14 40 0 40 C0 26.8 0 13.6 0 0 Z " fill="#FFFFFF" transform="translate(677,215)"/>
<path d="M0 0 C2.97 0 5.94 0 9 0 C9 13.2 9 26.4 9 40 C6.03 40 3.06 40 0 40 C0 26.8 0 13.6 0 0 Z " fill="#FFFFFF" transform="translate(523,215)"/>
<path d="M0 0 C2.64 0 5.28 0 8 0 C8 13.2 8 26.4 8 40 C5.36 40 2.72 40 0 40 C0 26.8 0 13.6 0 0 Z " fill="#FFFFFF" transform="translate(703,215)"/>
<path d="M0 0 C5.94 0 11.88 0 18 0 C16.26230366 4.34424085 14.62691121 7.12848983 11.875 10.8125 C10.78832031 12.27623047 10.78832031 12.27623047 9.6796875 13.76953125 C8.84824219 14.87361328 8.84824219 14.87361328 8 16 C5.70351643 13.10414095 3.95652443 10.1827969 2.3125 6.875 C1.65701172 5.57175781 1.65701172 5.57175781 0.98828125 4.2421875 C0 2 0 2 0 0 Z " fill="#FB9800" transform="translate(435,32)"/>
<path d="M0 0 C5.28 0 10.56 0 16 0 C13.69 4.62 11.38 9.24 9 14 C5.23193471 12.74397824 4.78753493 11.48987433 2.8125 8.125 C2.28269531 7.24070312 1.75289063 6.35640625 1.20703125 5.4453125 C0 3 0 3 0 0 Z " fill="#EDC73A" transform="translate(386,32)"/>
</svg>
